<svg xmlns="http://www.w3.org/2000/svg" style="display: none;">
    <symbol id="icon-menu" viewBox="0 0 32 32">
        <path d="M2 6h28v6h-28zM2 14h28v6h-28zM2 22h28v6h-28z"></path>
    </symbol>

    <symbol id="icon-close" viewBox="0 0 32 32">
        <path d="M31.708 25.708l-9.708-9.708 9.708-9.708c0.105-0.105 0.18-0.227 0.229-0.357 0.133-0.356 0.057-0.771-0.229-1.057l-4.586-4.586c-0.286-0.286-0.702-0.361-1.057-0.229-0.13 0.048-0.252 0.124-0.357 0.228l-9.708 9.708-9.708-9.708c-0.105-0.104-0.227-0.18-0.357-0.228-0.356-0.133-0.771-0.057-1.057 0.229l-4.586 4.586c-0.286 0.286-0.361 0.702-0.229 1.057 0.049 0.13 0.124 0.252 0.229 0.357l9.708 9.708-9.708 9.708c-0.104 0.105-0.18 0.227-0.229 0.357-0.133 0.355-0.057 0.771 0.229 1.057l4.586 4.586c0.286 0.286 0.702 0.361 1.057 0.229 0.13-0.049 0.252-0.124 0.357-0.229l9.708-9.708 9.708 9.708c0.105 0.105 0.227 0.18 0.357 0.229 0.356 0.133 0.771 0.057 1.057-0.229l4.586-4.586c0.286-0.286 0.362-0.702 0.229-1.057-0.049-0.13-0.124-0.252-0.229-0.357z"></path>
    </symbol>

    <symbol id="icon-facebook" viewBox="0 0 48 48">
        <path fill="#039be5" d="M24 5A19 19 0 1 0 24 43A19 19 0 1 0 24 5Z"></path>
        <path fill="#fff" d="M26.572,29.036h4.917l0.772-4.995h-5.69v-2.73c0-2.075,0.678-3.915,2.619-3.915h3.119v-4.359c-0.548-0.074-1.707-0.236-3.897-0.236c-4.573,0-7.254,2.415-7.254,7.917v3.323h-4.701v4.995h4.701v13.729C22.089,42.905,23.032,43,24,43c0.875,0,1.729-0.08,2.572-0.194V29.036z"></path>
    </symbol>

    <symbol id="icon-instagram" viewBox="0 0 48 48">
    <defs>
        <linearGradient id="insta-gradient" x1="5.6" y1="42.4" x2="42.4" y2="5.6" gradientUnits="userSpaceOnUse">
            <stop offset="0" stop-color="#f09433"/>
            <stop offset="0.25" stop-color="#e6683c"/>
            <stop offset="0.5" stop-color="#dc2743"/>
            <stop offset="0.75" stop-color="#cc2366"/>
            <stop offset="1" stop-color="#bc1888"/>
        </linearGradient>
    </defs>
    <path fill="url(#insta-gradient)" d="M24,4C12.95,4,4,12.95,4,24s8.95,20,20,20s20-8.95,20-20S35.05,4,24,4z"/>
    <path fill="#fff" d="M31,13h-14c-2.2,0-4,1.8-4,4v14c0,2.2,1.8,4,4,4h14c2.2,0,4-1.8,4-4v-14C35,14.8,33.2,13,31,13z M33,31 c0,1.1-0.9,2-2,2h-14c-1.1,0-2-0.9-2-2v-14c0-1.1,0.9-2,2-2h14c1.1,0,2,0.9,2,2V31z"/>
    <path fill="#fff" d="M24,18c-3.3,0-6,2.7-6,6s2.7,6,6,6s6-2.7,6-6S27.3,18,24,18z M24,28c-2.2,0-4-1.8-4-4s1.8-4,4-4s4,1.8,4,4 S26.2,28,24,28z"/>
    <circle fill="#fff" cx="31" cy="17" r="1.5"/>
</symbol>

    <symbol id="icon-twitter" viewBox="0 0 48 48">
        <path fill="#03a9f4" d="M42,37c0,2.762-2.239,5-5,5H11c-2.762,0-5-2.238-5-5V11c0-2.762,2.238-5,5-5h26c2.761,0,5,2.238,5,5 V37z"></path>
        <path fill="#fff" d="M36,17.12c-0.882,0.391-1.999,0.758-3,0.88c1.018-0.604,2.633-1.862,3-3 c-0.951,0.559-2.671,1.156-3.793,1.372C31.311,15.422,30.033,15,28.617,15C25.897,15,24,17.305,24,20v2c-4,0-7.9-3.047-10.327-6 c-0.427,0.721-0.667,1.565-0.667,2.457c0,1.819,1.671,3.665,2.994,4.543c-0.807-0.025-2.335-0.641-3-1c0,0.016,0,0.036,0,0.057 c0,2.367,1.661,3.974,3.912,4.422C16.501,26.592,16,27,14.072,27c0.626,1.935,3.773,2.958,5.928,3c-1.686,1.307-4.692,2-7,2 c-0.399,0-0.615,0.022-1-0.023C14.178,33.357,17.22,34,20,34c9.057,0,14-6.918,14-13.37c0-0.212-0.007-0.922-0.018-1.13 C34.95,18.818,35.342,18.104,36,17.12"></path>
    </symbol>
</svg>

